{
  "title": "Welcome To Karachi (2015) RK Pre DvD Rip - XviD - [1-3] - Team I",
  "uid": 11975016,
  "size": 1573980802,
  "categoryP": "video",
  "categoryS": "movies",
  "magnet": "?xt=urn:btih:1ebc08568c9e86a2ac55227bc835ac5519c41ffa&amp;dn=Welcome+To+Karachi+%282015%29+RK+Pre+DvD+Rip+-+XviD+-+%5B1-3%5D+-+Team+I&amp;tr=udp%3A%2F%2Ftracker.openbittorrent.com%3A80&amp;tr=udp%3A%2F%2Fopen.demonii.com%3A1337&amp;tr=udp%3A%2F%2Ftracker.coppersurfer.tk%3A6969&amp;tr=udp%3A%2F%2Fexodus.desync.com%3A6969",
  "seeders": 48,
  "leechers": 22,
  "uploader": "SS132203",
  "files": 3,
  "time": 1432945333,
  "description": "Welcome To Karachi (2015) RK Pre DvD Rip - XviD - [1-3] - Team IcTv Exclusive\n &lt;a href=&quot;\nhttp://imgsparrow.co/image/47&quot; rel=&quot;nofollow&quot; target=&quot;_NEW&quot;&gt;\nhttp://imgsparrow.co/image/47&lt;/a&gt;\n &lt;a href=&quot;\nhttp://imgsparrow.co/image/Gy&quot; rel=&quot;nofollow&quot; target=&quot;_NEW&quot;&gt;\nhttp://imgsparrow.co/image/Gy&lt;/a&gt;\n\nInfo : - \n\nAll Credit Goes To Intellect Clever &amp; IcTv\nSample Within Torrent\n\nMovie Info\nBanner : Pooja Entertainment India Ltd.\nYear : 2015\nCast : Jackky Bhagnani.Arshad Warsi.Lauren Gottlieb\nVideo: XviD\nAudio : MP3\nGenre : Comedy\nSubtitles :Nope\nResolution : 720 x 304\nRuntime : 1hr 55min XX\nSource : Team IcTv\n\nFormat                      : AVI\nFormat/Info                 : Audio Video Interleave\nFile size                   : 1.44 GiB\nDuration                    : 1h 54mn\nOverall bit rate            : 1 797 Kbps\n\nVideo\nID                          : 0\nFormat                      : MPEG-4 Visual\nFormat profile              : Advanced Simple@L5\nFormat settings, BVOP       : 2\nFormat settings, QPel       : No\nFormat settings, GMC        : No warppoints\nFormat settings, Matrix     : Default (H.263)\nCodec ID                    : XVID\nCodec ID/Hint               : XviD\nDuration                    : 1h 54mn\nBit rate                    : 1 662 Kbps\nWidth                       : 720 pixels\nHeight                      : 304 pixels\nDisplay aspect ratio        : 2.35:1\nFrame rate                  : 29.970 fps\nColor space                 : YUV\nChroma subsampling          : 4:2:0\nBit depth                   : 8 bits\nScan type                   : Progressive\nCompression mode            : Lossy\nBits/(Pixel*Frame)          : 0.253\nStream size                 : 1.33 GiB (92%)\n\nAudio\nID                          : 1\nFormat                      : MPEG Audio\nFormat version              : Version 1\nFormat profile              : Layer 3\nMode                        : Joint stereo\nMode extension              : MS Stereo\nCodec ID                    : 55\nCodec ID/Hint               : MP3\nDuration                    : 1h 54mn\nBit rate mode               : Constant\nBit rate                    : 128 Kbps\nChannel(s)                  : 2 channels\nSampling rate               : 48.0 KHz\nCompression mode            : Lossy\nStream size                 : 105 MiB (7%)\n\nScreens : - \n &lt;a href=&quot;\nhttp://imgsparrow.co/image/GO&quot; rel=&quot;nofollow&quot; target=&quot;_NEW&quot;&gt;\nhttp://imgsparrow.co/image/GO&lt;/a&gt; &lt;a href=&quot;\nhttp://imgsparrow.co/image/Gp&quot; rel=&quot;nofollow&quot; target=&quot;_NEW&quot;&gt;\nhttp://imgsparrow.co/image/Gp&lt;/a&gt; &lt;a href=&quot;\nhttp://imgsparrow.co/image/G0&quot; rel=&quot;nofollow&quot; target=&quot;_NEW&quot;&gt;\nhttp://imgsparrow.co/image/G0&lt;/a&gt; &lt;a href=&quot;\nhttp://imgsparrow.co/image/GB&quot; rel=&quot;nofollow&quot; target=&quot;_NEW&quot;&gt;\nhttp://imgsparrow.co/image/GB&lt;/a&gt; &lt;a href=&quot;\nhttp://imgsparrow.co/image/GK&quot; rel=&quot;nofollow&quot; target=&quot;_NEW&quot;&gt;\nhttp://imgsparrow.co/image/GK&lt;/a&gt; &lt;a href=&quot;\nhttp://imgsparrow.co/image/G2&quot; rel=&quot;nofollow&quot; target=&quot;_NEW&quot;&gt;\nhttp://imgsparrow.co/image/G2&lt;/a&gt; &lt;a href=&quot;\nhttp://imgsparrow.co/image/G3&quot; rel=&quot;nofollow&quot; target=&quot;_NEW&quot;&gt;\nhttp://imgsparrow.co/image/G3&lt;/a&gt; &lt;a href=&quot;\nhttp://imgsparrow.co/image/Gi&quot; rel=&quot;nofollow&quot; target=&quot;_NEW&quot;&gt;\nhttp://imgsparrow.co/image/Gi&lt;/a&gt; &lt;a href=&quot;\nhttp://imgsparrow.co/image/GV&quot; rel=&quot;nofollow&quot; target=&quot;_NEW&quot;&gt;\nhttp://imgsparrow.co/image/GV&lt;/a&gt; &lt;a href=&quot;\nhttp://imgsparrow.co/image/Gl&quot; rel=&quot;nofollow&quot; target=&quot;_NEW&quot;&gt;\nhttp://imgsparrow.co/image/Gl&lt;/a&gt;\n &lt;a href=&quot;\nhttp://imgsparrow.co/image/N2&quot; rel=&quot;nofollow&quot; target=&quot;_NEW&quot;&gt;\nhttp://imgsparrow.co/image/N2&lt;/a&gt;",
  "parsed": {
    "xt": "urn:btih:1ebc08568c9e86a2ac55227bc835ac5519c41ffa",
    "dn": "Welcome To Karachi (2015) RK Pre DvD Rip - XviD - [1-3] - Team I",
    "tr": [
      "udp://exodus.desync.com:6969",
      "udp://open.demonii.com:1337",
      "udp://tracker.coppersurfer.tk:6969",
      "udp://tracker.openbittorrent.com:80"
    ],
    "infoHash": "1ebc08568c9e86a2ac55227bc835ac5519c41ffa",
    "infoHashBuffer": {
      "type": "Buffer",
      "data": [
        30,
        188,
        8,
        86,
        140,
        158,
        134,
        162,
        172,
        85,
        34,
        123,
        200,
        53,
        172,
        85,
        25,
        196,
        31,
        250
      ]
    },
    "name": "Welcome To Karachi (2015) RK Pre DvD Rip - XviD - [1-3] - Team I",
    "announce": [
      "udp://exodus.desync.com:6969",
      "udp://open.demonii.com:1337",
      "udp://tracker.coppersurfer.tk:6969",
      "udp://tracker.openbittorrent.com:80"
    ],
    "urlList": []
  },
  "previous": 0,
  "peers": 44,
  "last_updated": "2016-12-26T18:20:36.666Z"
}